<svg width="100%" viewBox="0 0 220 205" xmlns="http://www.w3.org/2000/svg" style="max-width:580px;display:block;margin:0 auto">
  <rect width="205" height="175" fill="white" rx="6"/>
  <!-- Row labels (x=26 text-anchor=end keeps text safely on-screen) -->
  <text x="26" y="50"  font-size="11" fill="#888" font-family="sans-serif" text-anchor="end">i=1</text>
  <text x="26" y="101" font-size="11" fill="#888" font-family="sans-serif" text-anchor="end">i=2</text>
  <text x="26" y="152" font-size="11" fill="#888" font-family="sans-serif" text-anchor="end">i=3</text>
  <!-- Column labels -->
  <text x="56"  y="12" font-size="11" fill="#888" font-family="sans-serif" text-anchor="middle">j=1</text>
  <text x="114" y="12" font-size="11" fill="#888" font-family="sans-serif" text-anchor="middle">j=2</text>
  <text x="172" y="12" font-size="11" fill="#888" font-family="sans-serif" text-anchor="middle">j=3</text>
  <!-- Sign cells: each 52×46 px, starting at (30,20) -->
  <rect x="30"  y="20"  width="52" height="46" rx="5" fill="#D1FAE5" stroke="#059669" stroke-width="1"/>
  <text x="56"  y="49"  font-size="20" fill="#065F46" font-family="sans-serif" text-anchor="middle" font-weight="700">+</text>
  <rect x="88"  y="20"  width="52" height="46" rx="5" fill="#FEE2E2" stroke="#DC2626" stroke-width="1"/>
  <text x="114" y="49"  font-size="20" fill="#991B1B" font-family="sans-serif" text-anchor="middle" font-weight="700">−</text>
  <rect x="146" y="20"  width="52" height="46" rx="5" fill="#D1FAE5" stroke="#059669" stroke-width="1"/>
  <text x="172" y="49"  font-size="20" fill="#065F46" font-family="sans-serif" text-anchor="middle" font-weight="700">+</text>
  <rect x="30"  y="72"  width="52" height="46" rx="5" fill="#FEE2E2" stroke="#DC2626" stroke-width="1"/>
  <text x="56"  y="101" font-size="20" fill="#991B1B" font-family="sans-serif" text-anchor="middle" font-weight="700">−</text>
  <rect x="88"  y="72"  width="52" height="46" rx="5" fill="#D1FAE5" stroke="#059669" stroke-width="1"/>
  <text x="114" y="101" font-size="20" fill="#065F46" font-family="sans-serif" text-anchor="middle" font-weight="700">+</text>
  <rect x="146" y="72"  width="52" height="46" rx="5" fill="#FEE2E2" stroke="#DC2626" stroke-width="1"/>
  <text x="172" y="101" font-size="20" fill="#991B1B" font-family="sans-serif" text-anchor="middle" font-weight="700">−</text>
  <rect x="30"  y="124" width="52" height="46" rx="5" fill="#D1FAE5" stroke="#059669" stroke-width="1"/>
  <text x="56"  y="153" font-size="20" fill="#065F46" font-family="sans-serif" text-anchor="middle" font-weight="700">+</text>
  <rect x="88"  y="124" width="52" height="46" rx="5" fill="#FEE2E2" stroke="#DC2626" stroke-width="1"/>
  <text x="114" y="153" font-size="20" fill="#991B1B" font-family="sans-serif" text-anchor="middle" font-weight="700">−</text>
  <rect x="146" y="124" width="52" height="46" rx="5" fill="#D1FAE5" stroke="#059669" stroke-width="1"/>
  <text x="172" y="153" font-size="20" fill="#065F46" font-family="sans-serif" text-anchor="middle" font-weight="700">+</text>
</svg>
